<svg
    width="20"
    height="20"
    viewBox="0 0 28 28"
    xmlns="http://www.w3.org/2000/svg"
>
    <g fill="currentColor" fill-rule="nonzero">
        <path
            d="M13.954 25.667H3.488A1.165 1.165 0 0 1 2.326 24.5v-21c0-.644.52-1.167 1.162-1.167h10.466c.643 0 1.162-.521 1.162-1.166 0-.645-.52-1.167-1.162-1.167H3.488A3.498 3.498 0 0 0 0 3.5v21C0 26.43 1.565 28 3.488 28h10.466c.643 0 1.162-.521 1.162-1.167 0-.645-.52-1.166-1.162-1.166z" />
        <path
            d="m27.654 13.17-7.07-7a1.16 1.16 0 0 0-1.644.011 1.168 1.168 0 0 0 .011 1.65l5.052 5.002H10.465c-.643 0-1.163.522-1.163 1.167s.52 1.167 1.163 1.167h13.538l-5.052 5.002a1.17 1.17 0 0 0-.011 1.65 1.16 1.16 0 0 0 1.644.012l7.07-7a1.17 1.17 0 0 0 0-1.662z" />
    </g>
</svg>